<svg width="30" height="29" viewBox="0 0 30 29" fill="none" xmlns="http://www.w3.org/2000/svg">
<path d="M15 2.65685C16.632 2.65685 18.192 2.96905 19.68 3.59343C21.104 4.20181 22.372 5.06233 23.484 6.17502C24.596 7.2877 25.456 8.55648 26.064 9.98136C26.688 11.4703 27 13.0312 27 14.6642C27 16.2972 26.688 17.8582 26.064 19.3471C25.456 20.772 24.596 22.0408 23.484 23.1535C22.372 24.2662 21.104 25.1267 19.68 25.7351C18.192 26.3594 16.632 26.6716 15 26.6716C13.368 26.6716 11.808 26.3594 10.32 25.7351C8.896 25.1267 7.628 24.2662 6.516 23.1535C5.404 22.0408 4.544 20.772 3.936 19.3471C3.312 17.8582 3 16.2972 3 14.6642C3 13.0312 3.312 11.4703 3.936 9.98136C4.544 8.55648 5.404 7.2877 6.516 6.17502C7.628 5.06233 8.896 4.20181 10.32 3.59343C11.808 2.96905 13.368 2.65685 15 2.65685ZM15 24.2702C16.744 24.2702 18.36 23.8299 19.848 22.9493C21.288 22.1008 22.432 20.9561 23.28 19.5152C24.16 18.0263 24.6 16.4093 24.6 14.6642C24.6 12.9192 24.16 11.3022 23.28 9.81326C22.432 8.37237 21.288 7.22767 19.848 6.37914C18.36 5.4986 16.744 5.05833 15 5.05833C13.256 5.05833 11.64 5.4986 10.152 6.37914C8.712 7.22767 7.568 8.37237 6.72 9.81326C5.84 11.3022 5.4 12.9192 5.4 14.6642C5.4 16.4093 5.84 18.0263 6.72 19.5152C7.568 20.9561 8.712 22.1008 10.152 22.9493C11.64 23.8299 13.256 24.2702 15 24.2702ZM16.2 14.6642H19.8L15 19.4672L10.2 14.6642H13.8V9.86129H16.2V14.6642Z" fill="#DC2626"/>
</svg>
