<svg width="30" height="29" viewBox="0 0 30 29" fill="none" xmlns="http://www.w3.org/2000/svg">
<path d="M15 2.41659C16.632 2.41659 18.192 2.73075 19.68 3.35909C21.104 3.97131 22.372 4.83728 23.484 5.957C24.596 7.07673 25.456 8.35353 26.064 9.78742C26.688 11.2858 27 12.8566 27 14.4999C27 16.1433 26.688 17.7141 26.064 19.2124C25.456 20.6463 24.596 21.9231 23.484 23.0428C22.372 24.1626 21.104 25.0285 19.68 25.6408C18.192 26.2691 16.632 26.5833 15 26.5833C13.368 26.5833 11.808 26.2691 10.32 25.6408C8.896 25.0285 7.628 24.1626 6.516 23.0428C5.404 21.9231 4.544 20.6463 3.936 19.2124C3.312 17.7141 3 16.1433 3 14.4999C3 12.8566 3.312 11.2858 3.936 9.78742C4.544 8.35353 5.404 7.07673 6.516 5.957C7.628 4.83728 8.896 3.97131 10.32 3.35909C11.808 2.73075 13.368 2.41659 15 2.41659ZM15 24.1666C16.744 24.1666 18.36 23.7235 19.848 22.8374C21.288 21.9835 22.432 20.8316 23.28 19.3816C24.16 17.8833 24.6 16.256 24.6 14.4999C24.6 12.7438 24.16 11.1166 23.28 9.61825C22.432 8.16825 21.288 7.01631 19.848 6.16242C18.36 5.27631 16.744 4.83325 15 4.83325C13.256 4.83325 11.64 5.27631 10.152 6.16242C8.712 7.01631 7.568 8.16825 6.72 9.61825C5.84 11.1166 5.4 12.7438 5.4 14.4999C5.4 16.256 5.84 17.8833 6.72 19.3816C7.568 20.8316 8.712 21.9835 10.152 22.8374C11.64 23.7235 13.256 24.1666 15 24.1666ZM16.2 14.4999V19.3333H13.8V14.4999H10.2L15 9.66659L19.8 14.4999H16.2Z" fill="#16A34A"/>
</svg>
